<?xml version="1.0"?><svg xmlns="http://www.w3.org/2000/svg" id="Layer_1" data-name="Layer 1" viewBox="0 0 64 64"><path d="M13.3,51.27a6.13,6.13,0,0,0,4.37,1.81H35.8V61s0,.08,0,.13a.87.87,0,0,0,0,.22.75.75,0,0,0,.09.15.71.71,0,0,0,.08.15l0,0a.54.54,0,0,0,.12.09.85.85,0,0,0,.19.14l.1,0a1,1,0,0,0,.29.06h0l.09,0a.76.76,0,0,0,.26-.06l.14-.07a1.29,1.29,0,0,0,.16-.09l4.29-3.7L46,61.76a1,1,0,0,0,.18.1.33.33,0,0,0,.1.06,1,1,0,0,0,.37.08,1,1,0,0,0,.58-.21.67.67,0,0,0,.14-.11s0,0,0,0a.64.64,0,0,0,.1-.18l.07-.11a1.26,1.26,0,0,0,0-.28s0,0,0-.08V53.08H51.5a1,1,0,0,0,1-1V41.74h0V13.33h0V3a1,1,0,0,0-1-1H17.66A6.18,6.18,0,0,0,11.5,8.17h0V46.9h0A6.14,6.14,0,0,0,13.3,51.27ZM41.09,56,37.8,58.82V52.09h0V48.34h7.88V58.81L42.39,56A1,1,0,0,0,41.09,56Zm9.41-4.9H47.68V47.34a1,1,0,0,0-1-1H36.8a1,1,0,0,0-1,1v3.74H17.67a4.15,4.15,0,0,1-3-1.23,4.11,4.11,0,0,1-1.22-2.94h0a4.18,4.18,0,0,1,4.15-4.17H50.5Zm0-37.75h0V40.74H18.67V4H50.5v9.33ZM16.67,4.14V40.83a6.16,6.16,0,0,0-3.17,1.55V8.17A4.16,4.16,0,0,1,16.67,4.14Z"/><path d="M46.68,8.11h-22a1,1,0,0,0-1,1v8.18a1,1,0,0,0,1,1h22a1,1,0,0,0,1-1V9.11A1,1,0,0,0,46.68,8.11Zm-1,8.18h-20V10.11h20Z"/></svg>