<?xml version="1.0"?>
<svg width="35" height="35" xmlns="http://www.w3.org/2000/svg" xmlns:svg="http://www.w3.org/2000/svg" data-name="Layer 2">
 <g class="layer">
  <title>Layer 1</title>
  <path d="m29.47,34.75l-23.94,0a5.29,5.29 0 0 1 -5.28,-5.28l0,-23.94a5.29,5.29 0 0 1 5.28,-5.28l23.94,0a5.29,5.29 0 0 1 5.28,5.28l0,23.94a5.29,5.29 0 0 1 -5.28,5.28zm-23.94,-32a2.78,2.78 0 0 0 -2.78,2.78l0,23.94a2.78,2.78 0 0 0 2.78,2.78l23.94,0a2.78,2.78 0 0 0 2.78,-2.78l0,-23.94a2.78,2.78 0 0 0 -2.78,-2.78l-23.94,0z" fill="#dedede" id="svg_1"/>
  <path d="m11.86,17.23a4.47,4.47 0 1 1 4.47,-4.47a4.47,4.47 0 0 1 -4.47,4.47zm0,-6.44a1.97,1.97 0 1 0 1.97,1.97a1.97,1.97 0 0 0 -1.97,-1.97z" fill="#dedede" id="svg_2"/>
  <path d="m2.66,31.92a1.25,1.25 0 0 1 -0.93,-2.08l5.88,-6.55a3.29,3.29 0 0 1 4.55,-0.34l2.53,2.08a0.77,0.77 0 0 0 0.6,0.18a0.79,0.79 0 0 0 0.54,-0.3l6.65,-8.59a3.28,3.28 0 0 1 2.6,-1.27l0.01,0a3.28,3.28 0 0 1 2.58,1.25l6.38,8.11a1.25,1.25 0 0 1 -1.97,1.54l-6.37,-8.11a0.78,0.78 0 0 0 -0.63,-0.3a0.86,0.86 0 0 0 -0.63,0.31l-6.65,8.58a3.3,3.3 0 0 1 -4.71,0.53l-2.52,-2.08a0.79,0.79 0 0 0 -1.1,0.08l-5.87,6.54a1.25,1.25 0 0 1 -0.94,0.42z" fill="#dedede" id="svg_3"/>
 </g>
</svg>