<?xml version="1.0" encoding="UTF-8"?><svg id="Layer_1" xmlns="http://www.w3.org/2000/svg" viewBox="0 0 178.39 44.1"><path d="M38.37,36.95l-29.35-11.57-.09-5.91,30.8,14.87-24.23-13.91.09-5.82,28.42,16.37V5.89c0-3.26-2.64-5.89-5.89-5.89H5.89C2.64,0,0,2.64,0,5.89v32.22c0,3.05,2.32,5.57,5.3,5.86v-17.71l33.07,10.68Z" style="fill:#6e4ff7;"/><path d="M61.75,17.59c-.21-.33-.47-.62-.78-.88-.31-.25-.66-.45-1.05-.59-.39-.14-.8-.21-1.23-.21-.78,0-1.45.15-2,.46-.55.3-.99.71-1.33,1.22-.34.51-.59,1.09-.74,1.74-.16.65-.23,1.32-.23,2.02s.08,1.31.23,1.94c.16.63.4,1.2.74,1.7.34.5.78.91,1.33,1.21.55.3,1.21.46,2,.46,1.07,0,1.9-.33,2.5-.98.6-.65.97-1.51,1.1-2.57h3.37c-.09.99-.32,1.89-.69,2.69-.37.8-.86,1.48-1.46,2.04-.61.56-1.32.99-2.13,1.29-.81.3-1.71.44-2.69.44-1.21,0-2.3-.21-3.27-.63s-1.79-1-2.45-1.74-1.18-1.61-1.53-2.61c-.35-1-.53-2.08-.53-3.23s.18-2.28.53-3.3c.36-1.01.87-1.9,1.53-2.65.67-.75,1.48-1.35,2.45-1.78.97-.43,2.06-.64,3.27-.64.87,0,1.7.13,2.48.38.78.25,1.47.62,2.09,1.1.61.48,1.12,1.08,1.52,1.79.4.71.65,1.52.75,2.44h-3.37c-.06-.4-.19-.77-.4-1.1Z" style="fill:#6e4ff7;"/><path d="M71.08,13.36v6.08h6.41v-6.08h3.48v15.85h-3.48v-6.84h-6.41v6.84h-3.48v-15.85h3.48Z" style="fill:#6e4ff7;"/><path d="M91.5,13.36l5.93,15.85h-3.62l-1.2-3.53h-5.93l-1.24,3.53h-3.51l5.99-15.85h3.57ZM91.7,23.09l-2-5.82h-.04l-2.06,5.82h4.11Z" style="fill:#6e4ff7;"/><path d="M105.5,13.36c.99,0,1.83.14,2.53.43s1.26.67,1.7,1.14c.44.47.75,1.01.95,1.62.2.61.3,1.24.3,1.89s-.1,1.26-.3,1.88c-.2.61-.52,1.16-.95,1.63-.44.47-1,.85-1.7,1.14-.7.29-1.54.43-2.53.43h-3.66v5.68h-3.48v-15.85h7.15ZM104.55,20.82c.4,0,.78-.03,1.15-.09.37-.06.7-.17.98-.34.28-.17.51-.41.68-.72s.25-.72.25-1.22-.08-.91-.25-1.22c-.17-.31-.4-.55-.68-.72-.28-.17-.61-.28-.98-.34-.37-.06-.75-.09-1.15-.09h-2.71v4.75h2.71Z" style="fill:#6e4ff7;"/><path d="M111.47,16.29v-2.93h12.99v2.93h-4.75v12.92h-3.49v-12.92h-4.75Z" style="fill:#6e4ff7;"/><path d="M137.69,13.36v2.93h-8.37v3.4h7.68v2.71h-7.68v3.88h8.54v2.93h-12.03v-15.85h11.85Z" style="fill:#6e4ff7;"/><path d="M148.32,13.36c.71,0,1.35.11,1.92.34s1.06.54,1.46.94c.41.4.72.86.93,1.39.21.53.32,1.09.32,1.7,0,.93-.2,1.74-.59,2.42-.39.68-1.03,1.2-1.92,1.55v.04c.43.12.78.3,1.07.54s.51.53.69.87c.18.33.31.7.39,1.1s.14.8.17,1.2c.01.25.03.55.04.89.01.34.04.69.08,1.04.04.36.1.69.18,1.01.08.32.2.59.37.81h-3.49c-.19-.5-.31-1.1-.35-1.8-.04-.7-.11-1.36-.2-2-.12-.83-.37-1.43-.75-1.82s-1.01-.58-1.89-.58h-3.48v6.19h-3.49v-15.85h8.55ZM147.08,20.53c.8,0,1.4-.18,1.8-.53s.6-.93.6-1.73-.2-1.33-.6-1.68c-.4-.35-1-.52-1.8-.52h-3.82v4.46h3.82Z" style="fill:#6e4ff7;"/><path d="M163.48,13.36v15.85h-2.11v-15.85h2.11Z" style="fill:#6e4ff7;"/><path d="M173.53,13.36c1.6,0,2.81.41,3.63,1.23s1.23,1.97,1.23,3.45-.41,2.63-1.23,3.46c-.82.83-2.03,1.24-3.63,1.22h-4.84v6.48h-2.11v-15.85h6.95ZM172.82,20.95c1.2.01,2.08-.23,2.63-.73.55-.5.83-1.23.83-2.17s-.28-1.67-.83-2.16c-.55-.5-1.43-.74-2.63-.74h-4.13v5.82h4.13Z" style="fill:#6e4ff7;"/></svg>