<svg xmlns="http://www.w3.org/2000/svg" viewBox="0 0 380 140" width="760" height="280">
  <g transform="translate(4,37) scale(0.49)">
    <path d="M 54,0
L 80,0
A 10,10 0 0 1 90,10
L 90,36
A 10,10 0 0 1 80,46
L 55,46
A 9,9 0 0 0 46,55
L 46,79
A 9,9 0 0 0 55,88
L 80,88
A 10,10 0 0 1 90,98
L 90,124
A 10,10 0 0 1 80,134
L 54,134
A 10,10 0 0 1 44,124
L 44,99
A 9,9 0 0 0 35,90
L 10,90
A 10,10 0 0 1 0,80
L 0,54
A 10,10 0 0 1 10,44
L 35,44
A 9,9 0 0 0 44,35
L 44,10
A 10,10 0 0 1 54,0
Z" fill="#6734FF"/>
  </g>
  <text x="60" y="85" font-family="Sora, 'Segoe UI', Arial, sans-serif" font-weight="700" font-size="60" fill="#1A1A2E" letter-spacing="-1"><tspan>Chapter</tspan><tspan fill="#6734FF">IP</tspan></text>
</svg>
