<svg id="Layer_1" width="100%" xmlns="http://www.w3.org/2000/svg" height="100%" viewBox="0 0 939.84 194" data-name="Layer 1">   <g>     <g>       <path d="m181,0H13C5.82,0,0,5.82,0,13v168c0,7.18,5.82,13,13,13h154c-2.69-28.49-18.67-54.88-58.91-78.03-28.28-15.89-32.85-6.92-80.75,27.15,39.18-64.25,38.73-56.84-4-116.12,61.46,40.42,56.89,41.25,116.12-4-30.41,50.61-38.32,55.06-19.72,83.12,21.63,32.61,42.77,58.88,74.26,61.05V13c0-7.18-5.82-13-13-13Z" style="fill: #262a2e;"></path>       <path d="m181,194h13v-13c0,7.18-5.82,13-13,13Z" style="fill: #fff;"></path>       <path d="m119.74,106.12c-18.6-28.06-10.69-32.51,19.72-83.12-59.23,45.25-54.66,44.42-116.12,4,42.73,59.28,43.18,51.87,4,116.12,47.9-34.07,52.46-43.04,80.75-27.15,40.23,23.15,56.22,49.54,58.91,78.03h14c7.18,0,13-5.82,13-13v-13.83c-31.48-2.17-52.63-28.44-74.26-61.05Z" style="fill: #fff;"></path>     </g>     <path d="m92,142.14c-22.75,17.3-20.76,16.82-44.5,1.67,16.41,22.55,16.66,20.1,1.67,44.5,23.94-17.03,19.64-17.39,44.5-1.67-17.03-23.94-16.86-19.2-1.67-44.5Z" style="fill: #fff;"></path>     <path d="m180.28,76.84c-17.73,13.35-16.29,13.13-34.31,1.24,12.83,17.61,12.78,15.39,1.24,34.31,18.52-13.17,15.3-13.63,34.31-1.24-13.17-18.52-12.91-14.86-1.24-34.31Z" style="fill: #fff;"></path>   </g>   <g id="Credenza">     <path d="m699.78,61.6c16.09,19.44,32.17,39.03,49.06,59.57v-58.61h5.58v71.37l-1.43.95c-16.41-19.27-32.17-39.03-49.22-59.42v58.62h-5.41V62.39c.51-.2.99-.47,1.43-.8h0Z" style="fill: #262a2e;"></path>     <path d="m512.45,73.07h5.41v55.59c10.67-.16,21.19,1.6,31.22-1.91,13.22-4.62,20.71-18.64,18.32-33.93-2.07-14.33-13.38-24.37-28.19-24.85-8.92-.32-17.84,0-26.92,0v-5.58c13.7.63,27.71-2.23,40.94,3.35,14.33,6.21,22.14,21.5,19.91,38.55-2.07,15.61-13.7,27.88-29.47,29.31-10.2.95-20.71.16-31.38.16.16-20.07.16-40.3.16-60.69h0Z" style="fill: #262a2e;"></path>     <path d="m336.59,101.59h17.68c5.26,0,10.52.16,15.93-.16,10.04-.48,15.93-7.01,15.61-17.21-.16-9.4-6.69-16.25-16.09-16.41-10.83-.16-21.82,0-33.14,0-.16-1.91-.16-3.51-.16-4.78,12.9,0,25.48-.95,37.91.32,10.99.95,17.84,10.67,17.84,21.98s-6.69,18.96-18.16,21.02c-1.28.32-2.55.48-4.62.95,8.29,9.08,16.25,17.52,24.53,26.6-4.46,1.12-7.33.48-10.04-2.71-6.37-7.33-12.9-14.33-19.75-21.34-1.63-1.48-3.7-2.38-5.89-2.55-5.1-.32-10.2-.16-15.77-.16v26.92c-2.07.16-3.66.16-5.58.32-.32-10.83-.32-21.5-.32-32.82v.03Z" style="fill: #262a2e;"></path>     <path d="m834.23,67.65h-43.01v-5.1h53.52c-15.77,22.62-31.7,43.81-47.47,65.95h45.87c.16,2.07.32,3.51.32,5.41h-56.39c15.61-22.62,31.38-43.64,47.15-66.26h0Z" style="fill: #262a2e;"></path>     <path d="m299.96,72.59c-1.28,1.12-2.39,2.07-3.35,3.03-17.04-11.95-35.84-11.47-46.83.95-10.35,11.79-10.35,32.17.32,43.81,10.99,12.1,29.94,12.43,46.99.32.8,1.12,1.75,2.39,2.71,3.66-12.9,13.86-38.39,14.5-52.25,1.43-14.65-13.7-14.98-39.35-.8-53.68,13.54-14.02,38.87-13.86,53.21.48h0Z" style="fill: #262a2e;"></path>     <path d="m939.83,133.76c-4.14,1.6-6.06.16-7.64-3.35-8.29-19.11-16.88-37.91-25.33-56.87-.63-1.43-1.43-2.86-2.39-5.1-3.83,8.44-7.33,16.25-10.83,24.05-5.58,12.75-11.47,25.33-16.88,38.07-1.6,3.66-3.66,4.62-7.64,3.18l3.35-7.64c9.08-19.91,18-39.98,27.24-59.9.8-1.75,1.75-3.66,3.66-4.3,3.18-1.12,5.1,2.07,6.06,4.3,9.72,21.67,19.59,43.17,29.31,64.83.5.84.87,1.76,1.12,2.71h0Z" style="fill: #262a2e;"></path>     <polygon style="fill: #262a2e;" points="476.77 95.85 476.77 100.62 432.81 100.62 432.81 128.82 476.77 128.82 476.77 134.08 427.07 134.08 427.07 95.85 476.77 95.85"></polygon>     <path d="m615.35,128.82h43.64v5.26h-49.38v-38.23h49.38c.16,1.28.32,2.71.48,4.62h-44.12v28.36h0Z" style="fill: #262a2e;"></path>     <rect x="427.07" y="62.56" style="fill: #262a2e;" width="49.7" height="4.94"></rect>     <path d="m659.32,67.65h-49.86v-5.1h49.54c.16,1.6.16,3.03.32,5.1h0Z" style="fill: #262a2e;"></path>   </g> </svg>