<svg xmlns="http://www.w3.org/2000/svg" viewBox="0 0 21000 29700">
 <defs>
  <style type="text/css">
   <![CDATA[
    .fil1 {fill:#EBECEC}
    .fil0 {fill:#EBECEC;fill-rule:nonzero}
    .fnt0 {font-weight:bold;font-size:3175px;font-family:'Arial'}
   ]]>
  </style>
 </defs>
 <g id="Слой_x0020_1">
  <metadata id="CorelCorpID_0Corel-Layer"/>
  <g id="_2304231513968">
   <path class="fil0" d="M2057.67 13103.75l674.16 0c143.19,0 259.31,116.12 259.31,259.3l-0.02 674.15c0.02,143.18 -116.1,259.3 -259.28,259.3l-648.24 -0.01c-128.85,0.01 -233.35,104.51 -233.35,233.37l-0.01 622.29c0.01,128.85 104.51,233.36 233.37,233.36l648.22 0.01c143.19,-0.01 259.31,116.1 259.31,259.28l-0.02 674.17c0.02,143.16 -116.1,259.28 -259.28,259.28l-674.17 0.01c-143.16,-0.01 -259.28,-116.13 -259.28,-259.3l-0.01 -648.22c0.01,-128.87 -104.49,-233.38 -233.35,-233.38l-648.24 0.02c-143.17,-0.01 -259.28,-116.13 -259.28,-259.3l-0.01 -674.15c0.01,-143.18 116.12,-259.29 259.3,-259.29l648.22 -0.01c128.87,0.01 233.37,-104.49 233.37,-233.35l-0.01 -648.24c0.01,-143.17 116.13,-259.29 259.3,-259.29l-0.01 0z"/>
  </g>
  <g transform="matrix(1 0 0 1 -6879.16 793.75)">
   <text x="10500" y="14850"  class="fil1 fnt0">C</text>
   <text x="12729.38" y="14850"  class="fil1 fnt0">h</text>
   <text x="14637.03" y="14850"  class="fil1 fnt0">a</text>
   <text x="16339.36" y="14850"  class="fil1 fnt0">p</text>
   <text x="18215.26" y="14850"  class="fil1 fnt0">t</text>
   <text x="19240.79" y="14850"  class="fil1 fnt0">e</text>
   <text x="20943.12" y="14850"  class="fil1 fnt0">r</text>
   <text x="22115.22" y="14850"  class="fil1 fnt0">I</text>
   <text x="22965.59" y="14850"  class="fil1 fnt0">P</text>
  </g>
 </g>
</svg>
